<svg width="24" height="24" viewBox="0 0 24 24" fill="none" xmlns="http://www.w3.org/2000/svg">
<path fill-rule="evenodd" clip-rule="evenodd" d="M7.51885 3.93636C8.70733 2.69653 10.3192 2 12 2C13.6808 2 15.2927 2.69653 16.4811 3.93636C17.6696 5.1762 18.3373 6.85777 18.3373 8.61116C18.3373 11.6962 18.9696 13.6021 19.545 14.7026C19.8341 15.2555 20.1144 15.6159 20.3065 15.8275C20.4029 15.9336 20.4777 16.003 20.5214 16.0409C20.5432 16.0599 20.5573 16.071 20.5623 16.075C20.5625 16.0751 20.5626 16.0752 20.5627 16.0753C20.9243 16.3355 21.0842 16.8103 20.9565 17.2502C20.8273 17.6955 20.4338 18 19.9879 18H4.01213C3.56615 18 3.17274 17.6955 3.0435 17.2502C2.91584 16.8103 3.07568 16.3355 3.43727 16.0753C3.4374 16.0752 3.43754 16.0751 3.43769 16.075C3.44275 16.071 3.4568 16.0599 3.47864 16.0409C3.52228 16.003 3.59714 15.9336 3.69346 15.8275C3.88558 15.6159 4.16586 15.2555 4.45497 14.7026C5.03038 13.6021 5.6627 11.6962 5.6627 8.61116C5.6627 6.85777 6.33038 5.1762 7.51885 3.93636ZM6.13815 15.8884H17.8618C17.8306 15.8316 17.7993 15.7734 17.7681 15.7137C17.0122 14.268 16.3132 12.0074 16.3132 8.61116C16.3132 7.41779 15.8588 6.2733 15.0499 5.42947C14.241 4.58563 13.1439 4.11157 12 4.11157C10.8561 4.11157 9.75899 4.58563 8.95011 5.42947C8.14122 6.2733 7.6868 7.41779 7.6868 8.61116C7.6868 12.0074 6.98781 14.268 6.23191 15.7137C6.2007 15.7734 6.16943 15.8316 6.13815 15.8884Z" fill="#B4AFA8"/>
<path fill-rule="evenodd" clip-rule="evenodd" d="M9.49496 19.1411C9.9694 18.8518 10.5771 19.0216 10.8523 19.5202C10.9181 19.6395 11.0126 19.7385 11.1263 19.8073C11.24 19.8761 11.3688 19.9123 11.5 19.9123C11.6312 19.9123 11.76 19.8761 11.8737 19.8073C11.9874 19.7385 12.0819 19.6395 12.1477 19.5202C12.4229 19.0216 13.0306 18.8518 13.505 19.1411C13.9795 19.4304 14.141 20.0691 13.8658 20.5678C13.6253 21.0034 13.2803 21.365 12.8651 21.6163C12.4499 21.8677 11.9791 22 11.5 22C11.0209 22 10.5501 21.8677 10.1349 21.6163C9.71974 21.365 9.37465 21.0034 9.13423 20.5678C8.85902 20.0691 9.02052 19.4304 9.49496 19.1411Z" fill="#B4AFA8"/>
</svg>
