<svg width="24" height="24" viewBox="0 0 24 24" fill="none" xmlns="http://www.w3.org/2000/svg">
<path d="M16.0325 3H7.96724C5.22831 3 3 5.22841 3 7.96735V16.0327C3 18.7717 5.22831 21 7.96724 21H16.0325C18.7717 21 21 18.7716 21 16.0327V7.96735C21.0001 5.22841 18.7717 3 16.0325 3ZM19.4031 16.0327C19.4031 17.8911 17.8911 19.403 16.0327 19.403H7.96724C6.10892 19.4031 4.59705 17.8911 4.59705 16.0327V7.96735C4.59705 6.10902 6.10892 4.59705 7.96724 4.59705H16.0325C17.891 4.59705 19.403 6.10902 19.403 7.96735V16.0327H19.4031Z" fill="white"/>
<path d="M11.9999 7.36209C9.44236 7.36209 7.36172 9.44272 7.36172 12.0002C7.36172 14.5576 9.44236 16.6382 11.9999 16.6382C14.5574 16.6382 16.638 14.5576 16.638 12.0002C16.638 9.44272 14.5574 7.36209 11.9999 7.36209ZM11.9999 15.041C10.3231 15.041 8.95877 13.6769 8.95877 12.0001C8.95877 10.3232 10.323 8.95903 11.9999 8.95903C13.6768 8.95903 15.041 10.3232 15.041 12.0001C15.041 13.6769 13.6767 15.041 11.9999 15.041Z" fill="white"/>
<path d="M16.8327 6.0079C16.525 6.0079 16.2227 6.13247 16.0054 6.35074C15.7871 6.56794 15.6615 6.87031 15.6615 7.17907C15.6615 7.48688 15.7872 7.78914 16.0054 8.00741C16.2226 8.22461 16.525 8.35024 16.8327 8.35024C17.1415 8.35024 17.4428 8.22461 17.661 8.00741C17.8793 7.78914 18.0039 7.48677 18.0039 7.17907C18.0039 6.87031 17.8793 6.56794 17.661 6.35074C17.4438 6.13247 17.1415 6.0079 16.8327 6.0079Z" fill="white"/>
</svg>
