<svg width="24" height="24" viewBox="0 0 24 24" fill="none" xmlns="http://www.w3.org/2000/svg">
<path fill-rule="evenodd" clip-rule="evenodd" d="M11.5 4C9.77023 4 8.11492 4.67483 6.89729 5.87032C5.68028 7.06521 5 8.68188 5 10.3636C5 12.8184 6.63288 15.2316 8.46962 17.1352C9.36639 18.0646 10.2667 18.8261 10.944 19.3557C11.1539 19.5197 11.3415 19.6608 11.5 19.7772C11.6585 19.6608 11.8461 19.5197 12.056 19.3557C12.7333 18.8261 13.6336 18.0646 14.5304 17.1352C16.3671 15.2316 18 12.8184 18 10.3636C18 8.68188 17.3197 7.06521 16.1027 5.87032C14.8851 4.67483 13.2298 4 11.5 4ZM11.5 21C10.9523 21.8367 10.9521 21.8365 10.9518 21.8364L10.9492 21.8347L10.9434 21.8308L10.9237 21.8177C10.907 21.8066 10.8835 21.7908 10.8535 21.7704C10.7934 21.7296 10.7075 21.6703 10.5993 21.5936C10.3831 21.4403 10.0775 21.2168 9.7122 20.9313C8.9833 20.3614 8.00861 19.5377 7.03038 18.5239C5.11712 16.5411 3 13.6361 3 10.3636C3 8.13948 3.90008 6.01021 5.49611 4.44319C7.09152 2.87679 9.25152 2 11.5 2C13.7485 2 15.9085 2.87679 17.5039 4.44319C19.0999 6.01021 20 8.13948 20 10.3636C20 13.6361 17.8829 16.5411 15.9696 18.5239C14.9914 19.5377 14.0167 20.3614 13.2878 20.9313C12.9225 21.2168 12.6169 21.4403 12.4007 21.5936C12.2925 21.6703 12.2066 21.7296 12.1465 21.7704C12.1165 21.7908 12.093 21.8066 12.0763 21.8177L12.0566 21.8308L12.0508 21.8347L12.0489 21.8359C12.0486 21.8361 12.0477 21.8367 11.5 21ZM11.5 21L12.0477 21.8367C11.715 22.0544 11.2845 22.0541 10.9518 21.8364L11.5 21Z" fill="#3F3F3E"/>
<path fill-rule="evenodd" clip-rule="evenodd" d="M11.5 9C10.6716 9 10 9.67157 10 10.5C10 11.3284 10.6716 12 11.5 12C12.3284 12 13 11.3284 13 10.5C13 9.67157 12.3284 9 11.5 9ZM8 10.5C8 8.567 9.567 7 11.5 7C13.433 7 15 8.567 15 10.5C15 12.433 13.433 14 11.5 14C9.567 14 8 12.433 8 10.5Z" fill="#3F3F3E"/>
</svg>
