<svg width="24" height="24" viewBox="0 0 24 24" fill="none" xmlns="http://www.w3.org/2000/svg">
<path fill-rule="evenodd" clip-rule="evenodd" d="M7.8675 2.04085C8.1578 1.87496 8.5118 1.86513 8.81085 2.01466L15.6049 5.41168L21.5039 2.04085C21.8134 1.86399 22.1936 1.86526 22.5019 2.04418C22.8102 2.2231 23 2.55262 23 2.90909V17.4545C23 17.8134 22.8077 18.1447 22.4961 18.3228L16.1325 21.9591C15.8422 22.125 15.4882 22.1349 15.1892 21.9853L8.39511 18.5883L2.49614 21.9591C2.18664 22.136 1.80639 22.1347 1.49807 21.9558C1.18976 21.7769 1 21.4474 1 21.0909V6.54545C1 6.1866 1.19229 5.85525 1.50386 5.67721L7.8675 2.04085ZM8.39511 4.04286L3 7.12577V19.3677L7.8675 16.5863C8.1578 16.4204 8.5118 16.4106 8.81085 16.5601L15.6049 19.9571L21 16.8742V4.63227L16.1325 7.4137C15.8422 7.57958 15.4882 7.58941 15.1892 7.43988L8.39511 4.04286Z" fill="white"/>
<path fill-rule="evenodd" clip-rule="evenodd" d="M8.36365 1.90909C8.91593 1.90909 9.36365 2.3568 9.36365 2.90909V17.4545C9.36365 18.0068 8.91593 18.4545 8.36365 18.4545C7.81136 18.4545 7.36365 18.0068 7.36365 17.4545V2.90909C7.36365 2.3568 7.81136 1.90909 8.36365 1.90909Z" fill="white"/>
<path fill-rule="evenodd" clip-rule="evenodd" d="M15.6364 5.54544C16.1886 5.54544 16.6364 5.99316 16.6364 6.54544V21.0909C16.6364 21.6432 16.1886 22.0909 15.6364 22.0909C15.0841 22.0909 14.6364 21.6432 14.6364 21.0909V6.54544C14.6364 5.99316 15.0841 5.54544 15.6364 5.54544Z" fill="white"/>
</svg>
