<svg width="24" height="24" viewBox="0 0 24 24" fill="none" xmlns="http://www.w3.org/2000/svg">
<path d="M20.9994 19.1862V16.4765C21.0105 16.0335 20.858 15.6019 20.5709 15.2639C20.2839 14.9258 19.8824 14.7048 19.4428 14.6429C18.5739 14.5285 17.7207 14.3164 16.8996 14.0106C16.5757 13.8891 16.2236 13.8628 15.8852 13.9348C15.5467 14.0069 15.2361 14.1742 14.99 14.4171L13.8406 15.5642C11.5748 14.2784 9.69877 12.406 8.41041 10.1447L9.5598 8.99761C9.80313 8.75203 9.97082 8.44198 10.043 8.1042C10.1152 7.76642 10.0888 7.41507 9.96707 7.09177C9.66067 6.27229 9.44814 5.42084 9.33354 4.55366C9.27207 4.11961 9.05455 3.72267 8.72152 3.43683C8.3885 3.151 7.96269 2.99577 7.52347 3.00009H4.80837C4.55707 3.00032 4.30858 3.05278 4.07872 3.15411C3.84885 3.25544 3.64265 3.40343 3.47323 3.58866C3.30381 3.77389 3.17489 3.99229 3.09468 4.22996C3.01447 4.46764 2.98473 4.71938 3.00735 4.96915C3.30442 7.76107 4.25627 10.4439 5.7858 12.8003C7.17534 14.9827 9.02929 16.8329 11.216 18.2197C13.5664 19.7409 16.2415 20.6907 19.0265 20.9927C19.2775 21.0153 19.5305 20.9854 19.7693 20.9048C20.008 20.8242 20.2273 20.6947 20.413 20.5247C20.5988 20.3546 20.7469 20.1477 20.8479 19.9172C20.9488 19.6867 21.0005 19.4377 20.9994 19.1862Z" stroke="white" stroke-width="2" stroke-linecap="round" stroke-linejoin="round"/>
</svg>
