<svg width="24" height="24" viewBox="0 0 24 24" fill="none" xmlns="http://www.w3.org/2000/svg">
<g clip-path="url(#clip0)">
<path d="M1.21646 20.9828C0.877038 20.3861 0.93765 19.6373 1.39223 18.8763L10.3506 3.61339C10.9385 2.60886 12.0416 1.99396 13.2357 2.00004C13.7327 2.00004 14.2297 2.12181 14.654 2.33489C14.751 2.37751 17.0178 3.47946 19.2968 6.08517C21.394 8.48388 23.8911 12.6603 23.8608 18.9433C23.8548 20.447 23.2123 21.1898 22.6728 21.549C22.0546 21.963 21.3758 22.0056 21.1151 21.9995C21.0667 21.9995 21.0303 21.9995 21.006 21.9995L3.11359 21.9143C2.22867 21.9082 1.55588 21.5794 1.21646 20.9828ZM21.0606 20.9584C21.0667 20.9584 21.0848 20.9584 21.1151 20.9584C21.2485 20.9584 21.7031 20.9402 22.097 20.6784C22.5759 20.3618 22.8183 19.7773 22.8244 18.9372C22.8729 7.57067 14.2903 3.31508 14.1994 3.27246C13.9024 3.12026 13.5751 3.0472 13.2296 3.04111C12.4053 3.03502 11.6477 3.46119 11.2416 4.14306L2.28322 19.3999C2.03471 19.8199 1.9741 20.2096 2.11957 20.4653C2.26504 20.721 2.6287 20.8671 3.11359 20.8671V21.3907V20.8732L21.0182 20.9584H21.0606Z" fill="white"/>
<path d="M19.7204 21.4759L20.7569 21.482C20.7569 21.3481 20.7084 7.85072 10.5863 4.05783L10.2227 5.03193C19.672 8.57521 19.7204 21.342 19.7204 21.4759Z" fill="white"/>
<path d="M12.4534 15.1138C12.4473 16.4167 13.4959 17.4821 14.793 17.4882C16.0901 17.4943 17.1508 16.4411 17.1568 15.1382C17.1629 13.8353 16.1143 12.7699 14.8172 12.7638C13.5202 12.7517 12.4595 13.8049 12.4534 15.1138Z" fill="white"/>
<path d="M8.65904 11.3514C8.65298 12.1124 9.26515 12.7334 10.0289 12.7395C10.7865 12.7456 11.4047 12.1307 11.4108 11.3636C11.4169 10.6025 10.8047 9.98155 10.041 9.97546C9.28334 9.97546 8.6651 10.5904 8.65904 11.3514Z" fill="white"/>
<path d="M5.73093 17.0438C5.72487 18.1275 6.59767 19.0103 7.67655 19.0163C8.75543 19.0224 9.63429 18.1457 9.64035 17.0621C9.64642 15.9784 8.77361 15.0956 7.69473 15.0895C6.61585 15.0834 5.73699 15.9601 5.73093 17.0438Z" fill="white"/>
</g>
<defs>
<clipPath id="clip0">
<rect width="24" height="24" fill="white" transform="translate(24) rotate(90)"/>
</clipPath>
</defs>
</svg>
