<svg width="24" height="24" viewBox="0 0 24 24" fill="none" xmlns="http://www.w3.org/2000/svg">
<path fill-rule="evenodd" clip-rule="evenodd" d="M21.6745 2.32547C22.0066 2.6575 22.094 3.16242 21.893 3.58679L13.472 21.3645C13.2711 21.7886 12.8254 22.0408 12.3583 21.9946C11.8913 21.9483 11.5037 21.6136 11.3899 21.1583L9.68025 14.3197L2.84165 12.6101C2.38636 12.4963 2.05168 12.1087 2.00544 11.6417C1.95919 11.1746 2.21136 10.7289 2.63549 10.528L20.4132 2.10699C20.8376 1.90597 21.3425 1.99343 21.6745 2.32547ZM6.39262 11.2072L10.866 12.3256C11.2641 12.4251 11.5749 12.7359 11.6744 13.134L12.7928 17.6074L18.5529 5.44711L6.39262 11.2072Z" fill="#8695A4"/>
</svg>
