<svg width="24" height="24" viewBox="0 0 24 24" fill="none" xmlns="http://www.w3.org/2000/svg">
<path d="M21.1538 6.74617C20.4788 7.04231 19.7594 7.2386 19.0094 7.3339C19.781 6.87325 20.3698 6.14937 20.6467 5.27685C19.9273 5.70573 19.1331 6.00867 18.2867 6.17773C17.6036 5.45044 16.6301 5 15.5681 5C13.5077 5 11.8489 6.67242 11.8489 8.72267C11.8489 9.01767 11.8738 9.30133 11.9351 9.57137C8.841 9.42046 6.10317 7.93752 4.26396 5.6785C3.94287 6.2356 3.75452 6.87325 3.75452 7.55969C3.75452 8.84862 4.41827 9.99117 5.40765 10.6527C4.80971 10.6413 4.22312 10.4677 3.72615 10.1943C3.72615 10.2056 3.72615 10.2204 3.72615 10.2351C3.72615 12.0437 5.01621 13.5459 6.70792 13.892C6.40498 13.9748 6.07481 14.0145 5.73215 14.0145C5.49388 14.0145 5.25335 14.0009 5.02756 13.951C5.50977 15.4248 6.87812 16.5084 8.50515 16.5436C7.23892 17.5341 5.63117 18.1309 3.89067 18.1309C3.58546 18.1309 3.29273 18.1173 3 18.0798C4.6486 19.143 6.6024 19.75 8.70938 19.75C15.5579 19.75 19.3022 14.0769 19.3022 9.1595C19.3022 8.99498 19.2965 8.83613 19.2885 8.67842C20.0272 8.15423 20.6478 7.49956 21.1538 6.74617Z" fill="white"/>
</svg>
