<svg width="24" height="24" viewBox="0 0 24 24" fill="none" xmlns="http://www.w3.org/2000/svg">
<path fill-rule="evenodd" clip-rule="evenodd" d="M4.46073 15.4666C5.39601 14.5275 6.66454 14 7.98723 14H16.0128C17.3355 14 18.604 14.5275 19.5393 15.4666C20.4746 16.4056 21 17.6792 21 19.0072V21.0216C21 21.562 20.5637 22 20.0255 22C19.4874 22 19.0511 21.562 19.0511 21.0216V19.0072C19.0511 18.1982 18.731 17.4223 18.1612 16.8502C17.5914 16.2781 16.8186 15.9567 16.0128 15.9567H7.98723C7.18142 15.9567 6.40862 16.2781 5.83883 16.8502C5.26904 17.4223 4.94893 18.1982 4.94893 19.0072V21.0216C4.94893 21.562 4.51265 22 3.97446 22C3.43628 22 3 21.562 3 21.0216V19.0072C3 17.6792 3.52544 16.4056 4.46073 15.4666Z" fill="#B4AFA8"/>
<path fill-rule="evenodd" clip-rule="evenodd" d="M12 3.95392C10.3177 3.95392 8.95392 5.3177 8.95392 7C8.95392 8.6823 10.3177 10.0461 12 10.0461C13.6823 10.0461 15.0461 8.6823 15.0461 7C15.0461 5.3177 13.6823 3.95392 12 3.95392ZM7 7C7 4.23858 9.23858 2 12 2C14.7614 2 17 4.23858 17 7C17 9.76142 14.7614 12 12 12C9.23858 12 7 9.76142 7 7Z" fill="#B4AFA8"/>
</svg>
